<svg viewBox="0 0 638.72 367.88" width="638.72" height="367.88" xmlns="http://www.w3.org/2000/svg"><g style="fill:black"><path d="M146,163.15c-10.23,12.45-36.92,17.79-52.49,17.79-47.81,0-80.72-30.24-80.72-78.72,0-62,46.92-89.4,103.85-89.4,4.23,0,7.12.22,8.23,4.89,1.11,4.45,1.56,9.12,2.45,13.57,1.55,7.78,3.78,15.79,3.78,23.79,0,4.23-.89,9.34-6.23,9.34-3.11,0-6-.44-9.12-.44-26.24,0-52,9.34-52,40,0,16.45,6.22,29.13,24.46,29.13a38.69,38.69,0,0,0,8.67-.89l-.44-12.46c-3.56.23-6.9.89-10.46.89-5.78,0-10.89-.66-10.89-7.56,0-4-.23-8-.23-12,0-4.22,0-12.67,6-13.12l58.26-4a5.8,5.8,0,0,1,6.23,5.56l2.22,69.38A6.26,6.26,0,0,1,146,163.15Z" style="fill:#ec2024"></path><path d="M206.05,172.71a5.61,5.61,0,0,1-5.34,5.56l-35.36.67a5.51,5.51,0,0,1-5.33-5.78L161.8,29.27c0-2.89,2.22-5.78,5.33-5.78l36.7.67c3.11,0,5.33,3.11,5.33,6Z" style="fill:#ec2024"></path><path d="M619.92,18H510.72a18.51,18.51,0,0,0-6.12,1.06,19,19,0,0,0-13.57-7c-9.41-.73-18.59-1.38-27.45-1.38A51.53,51.53,0,0,0,450.49,12c-7.6,2-15.73,7.93-15.73,18.66l0,9.54-8-17.19c-2.66-6.24-8.23-10.21-15.34-10.92l-.34,0L406,11.65c-7.6-.59-15.46-1.2-23.33-1.2a52,52,0,0,0-13.4,1.45c-3.72,1-15.87,5.32-15.87,18.72l.1,64.3L338,24.08l-.08-.36A19.06,19.06,0,0,0,319.7,9.34H256.32a19.05,19.05,0,0,0-18.21,14.38l-17.67,76.89L222,30.43v-.28c0-10.32-8.06-18.72-18-18.81l-36.62-.66h-.23A18.39,18.39,0,0,0,149,29.16l-.55,44.3a18.57,18.57,0,0,0-9.7-2.29c3.09-3.52,5.18-8.74,5.18-16.11,0-7.64-1.6-15-3-21.42-.36-1.64-.71-3.27-1-4.88s-.57-3.19-.84-5c-.46-2.93-.94-6-1.73-9.15-1.83-7.6-6.46-11.15-10-12.79A24.73,24.73,0,0,0,116.66,0C84,0,55.92,8.34,35.54,24.11,12.29,42.12,0,69.13,0,102.21,0,157,37.59,193.74,93.53,193.74c12.86,0,38.15-3.36,54.48-15.15a18.24,18.24,0,0,0,17.35,13.15h.12l35.4-.66a17.79,17.79,0,0,0,10.4-3.57A18.63,18.63,0,0,0,223,191.74h40.7c4.21,0,14.51-1.66,19.19-17.08a70.07,70.07,0,0,0,2.1-9.83h5.27a84.66,84.66,0,0,0,2.18,11.75c4.33,15.78,13.89,18.36,19.2,18.49l40.59.67h.21a18.46,18.46,0,0,0,12.16-4.57,20.85,20.85,0,0,0,2.8,1.09,39.75,39.75,0,0,0,11.94,1.47,222,222,0,0,0,23.13-1.61l6.43-.66c10-.79,17.23-8.34,17.27-18l.11-11.1,9.25,19.92a18.86,18.86,0,0,0,17,10.81l37.24-1.57.36,0a18.3,18.3,0,0,0,17.24-18.26l.83-89.33a18.47,18.47,0,0,0,2.59.2h18.8l.19,93.06a18.61,18.61,0,0,0,18.59,18.59h.15l39.4-.9A18.5,18.5,0,0,0,606,176.27l-.78-92.17h14.67a18.94,18.94,0,0,0,18.8-18.59V36.6A19,19,0,0,0,619.92,18ZM147.37,160.55a6.41,6.41,0,0,1-1.36,2.6c-10.23,12.45-36.92,17.79-52.49,17.79-47.81,0-80.72-30.24-80.72-78.72,0-62,46.92-89.4,103.85-89.4,4.23,0,7.12.22,8.23,4.89,1.11,4.45,1.56,9.12,2.45,13.57,1.55,7.78,3.78,15.79,3.78,23.79,0,4.23-.89,9.34-6.23,9.34-3.11,0-6-.44-9.12-.44-26.24,0-52,9.34-52,40,0,16.45,6.22,29.13,24.46,29.13a38.69,38.69,0,0,0,8.67-.89l-.44-12.46c-3.56.23-6.9.89-10.46.89-5.78,0-10.89-.66-10.89-7.56,0-4-.23-8-.23-12,0-4.22,0-12.67,6-13.12l58.26-4a5.8,5.8,0,0,1,6.23,5.56l2.1,65.54Zm58.91,1.72L204.73,169a17.2,17.2,0,0,0-.19,7.45,5.21,5.21,0,0,1-3.83,1.79l-35.36.67a5.51,5.51,0,0,1-5.33-5.78l.14-11.3a20.34,20.34,0,0,0,.22-2.94l-.13-4.28L161.8,29.27c0-2.89,2.22-5.78,5.33-5.78l36.7.67c3.11,0,5.33,3.11,5.33,6Zm146.1,20.67-40.48-.67c-8.89-.22-9.12-23.79-10.23-30.24h-28c-1.11,6-1.55,26.91-10,26.91H223a6.2,6.2,0,0,1-4.54-2.27,17.6,17.6,0,0,0,.45-3.78l.2-9.1,31.46-137a6.16,6.16,0,0,1,5.79-4.67h63.38a6.15,6.15,0,0,1,5.78,4.67l28.09,128.6,0,19.06a18,18,0,0,0,1.66,7.64A5.62,5.62,0,0,1,352.38,182.94Zm142.1-9.78a5.47,5.47,0,0,1-5.34,5.56l-36.69,1.55a5.94,5.94,0,0,1-5.34-3.33L414,105.55l-.67,67.83c0,3.33-2.45,5.11-5.56,5.34-9.34.88-19.13,2.22-28.46,2.22a27.09,27.09,0,0,1-8.54-1,17.77,17.77,0,0,0,.23-2.74v-2l-4.63-21.17-.19-123.33c0-7.12,11.57-7.34,16.46-7.34,9.12,0,18.46.89,27.58,1.56,2.22.22,4,1.11,4.89,3.33l32.69,70.5-.22-68c0-7.12,11.11-7.12,16-7.12,8.67,0,17.79.67,26.46,1.34a6.37,6.37,0,0,1,4.66,2.4,18.4,18.4,0,0,0-2.56,9.37V65.51A18.42,18.42,0,0,0,495.39,76ZM625.91,65.52a6.1,6.1,0,0,1-6,5.79H592.33l.89,105a5.7,5.7,0,0,1-5.56,5.78l-39.37.89a5.89,5.89,0,0,1-5.78-5.78l-.22-105.85H510.71a5.53,5.53,0,0,1-2.45-.59l.37-39.47a5.4,5.4,0,0,1,2.08-.42H619.9a6.09,6.09,0,0,1,6,5.78Z"></path><polygon points="282.1 111.33 294.56 111.33 288.77 79.31 282.1 111.33"></polygon><path d="M352.38,182.94l-40.48-.67c-8.89-.22-9.12-23.79-10.23-30.24h-28c-1.11,6-1.55,26.91-10,26.91H223c-3.34,0-6.67-3.56-5.78-6.9L250.52,26.83a6.16,6.16,0,0,1,5.79-4.67h63.38a6.15,6.15,0,0,1,5.78,4.67l32.69,149.66v.67A5.89,5.89,0,0,1,352.38,182.94ZM288.77,79.31l-6.67,32h12.46Z" style="fill:#ec2024"></path><path d="M494.48,173.16a5.47,5.47,0,0,1-5.34,5.56l-36.69,1.55a5.94,5.94,0,0,1-5.34-3.33L414,105.55l-.67,67.83c0,3.33-2.45,5.11-5.56,5.34-9.34.88-19.13,2.22-28.46,2.22-4.45,0-12.9-.22-12.9-6.45l-.23-143.88c0-7.12,11.57-7.34,16.46-7.34,9.12,0,18.46.89,27.58,1.56,2.22.22,4,1.11,4.89,3.33l32.69,70.5-.22-68c0-7.12,11.11-7.12,16-7.12,8.67,0,17.79.67,26.46,1.34a5.88,5.88,0,0,1,5.78,5.78Z" style="fill:#ec2024"></path><path d="M619.9,71.31H592.33l.89,105a5.7,5.7,0,0,1-5.56,5.78l-39.37.89a5.89,5.89,0,0,1-5.78-5.78l-.22-105.85H510.71a5.89,5.89,0,0,1-5.78-5.79V36.61a5.89,5.89,0,0,1,5.78-5.78H619.9a6.09,6.09,0,0,1,6,5.78V65.52A6.1,6.1,0,0,1,619.9,71.31Z" style="fill:#ec2024"></path><path d="M77.85,284.66l-.22,28.47c9.56-.45,24.24-2.67,24.24-15.13C101.87,287.11,85.85,285.33,77.85,284.66Z"></path><path d="M101.64,237.74c0-12.45-14.67-14.68-24.24-14.9l.23,28.46C85.63,250.64,101.64,248.64,101.64,237.74Z"></path><path d="M162.94,235.06c0-19.13-8.16-44.48-47-56.59-21.39-6.67-45.58-7.59-68.52-7.59H28.48A18.61,18.61,0,0,0,9.9,189.49l.22,157a18.61,18.61,0,0,0,18.59,18.59H48.06c21.71,0,46.82-.91,68.33-7.68,38.66-12.15,46.77-37.43,46.77-56.5a49.67,49.67,0,0,0-12.5-33A50.57,50.57,0,0,0,162.94,235.06ZM48.05,352.27H28.7a5.89,5.89,0,0,1-5.78-5.79l-.22-157a5.89,5.89,0,0,1,5.78-5.78h18.9c35.58,0,102.74,1.56,102.74,51.37,0,13.79-7.34,24.91-18.23,32.91,10.89,8,18.45,18.91,18.45,32.92C150.34,350.49,83.63,352.27,48.05,352.27Z"></path><path d="M568.42,237.74c0-12.45-14.67-14.68-24.24-14.9l.23,28.46C552.41,250.64,568.42,248.64,568.42,237.74Z"></path><path d="M544.63,284.66l-.22,28.47c9.56-.45,24.24-2.67,24.24-15.13C568.65,287.11,552.63,285.33,544.63,284.66Z"></path><path d="M617.44,267.91a50.57,50.57,0,0,0,12.28-32.85c0-19.13-8.16-44.48-47-56.59-21.4-6.67-45.59-7.59-68.53-7.59H495.26A18.58,18.58,0,0,0,478.74,181a18.58,18.58,0,0,0-13.33-5.68l-41.3.22A18.85,18.85,0,0,0,406.52,188l-10.91,33-10.9-32.79a18.39,18.39,0,0,0-17.46-12.68l-41.44-.22A18.88,18.88,0,0,0,307,192.78l-5.79,141a18.42,18.42,0,0,0,17.43,19.42c3.15.23,6.37.56,9.77.91a187.41,187.41,0,0,0,19.61,1.35c14.51,0,21-5.33,23.8-10.66a18.1,18.1,0,0,0,12.68,5.1h22a18.59,18.59,0,0,0,12.74-5.06,19,19,0,0,0,3.83,5,18.29,18.29,0,0,0,13.66,4.94l35.81-2.45h0a18.79,18.79,0,0,0,4.95-1,18.59,18.59,0,0,0,17.93,13.75h19.34c21.72,0,46.83-.91,68.34-7.68,38.66-12.15,46.77-37.43,46.77-56.5A49.67,49.67,0,0,0,617.44,267.91ZM471.69,339.59,435.89,342a5.94,5.94,0,0,1-6-5.79l-1.33-61.37-16.46,58a5.74,5.74,0,0,1-5.56,4.22h-22a5.49,5.49,0,0,1-5.34-4.22L362.5,274.65l-1.33,61.6c-.23,6.23-8.68,6.45-13.13,6.45-9.33,0-19.12-1.55-28.46-2.22a5.75,5.75,0,0,1-5.56-6l5.78-140.77a6.05,6.05,0,0,1,6-5.56l41.36.22a5.55,5.55,0,0,1,5.34,3.78l23.12,69.61,22.91-69.39a6,6,0,0,1,5.56-4l41.36-.22a5.83,5.83,0,0,1,5.78,5.56l5.64,136.44v5.33A5.64,5.64,0,0,1,471.69,339.59Zm43.14,12.68H495.48a5.89,5.89,0,0,1-5.78-5.79v-9.86a18.2,18.2,0,0,0,.14-3.47l-.15-3.79-.2-139.88a5.89,5.89,0,0,1,5.78-5.78h18.9c35.58,0,102.74,1.56,102.74,51.37,0,13.79-7.34,24.91-18.23,32.91,10.89,8,18.46,18.91,18.46,32.92C617.13,350.49,550.41,352.27,514.83,352.27Z"></path><path d="M48.05,352.27H28.7a5.89,5.89,0,0,1-5.78-5.79l-.22-157a5.89,5.89,0,0,1,5.78-5.78h18.9c35.58,0,102.74,1.56,102.74,51.37,0,13.79-7.34,24.91-18.23,32.91,10.89,8,18.45,18.91,18.45,32.92C150.34,350.49,83.63,352.27,48.05,352.27ZM77.4,222.84l.23,28.46c8-.66,24-2.66,24-13.56C101.64,225.29,87,223.06,77.4,222.84Zm.45,61.82-.22,28.47c9.56-.45,24.24-2.67,24.24-15.13C101.87,287.11,85.85,285.33,77.85,284.66Z" style="fill:#fff"></path><path d="M236.86,173.77c-26.46,0-50.24,10.43-67,29.36-15.71,17.79-24.36,42-24.36,68.18,0,56.82,35.32,93.54,90,93.54,24,0,45.74-10.53,61.35-29.64,13.95-17.1,21.95-40.14,21.95-63.23C318.83,223.71,288.17,173.77,236.86,173.77ZM235.52,352c-49.15,0-77.17-32.91-77.17-80.72,0-46.26,30.24-84.73,78.5-84.73C281.55,186.59,306,232,306,272,306,312.24,278.66,352,235.52,352Z"></path><path d="M258,273.1c0-14-8.67-32.25-24.91-32.25s-24.68,18.24-24.68,32.25,8.45,32.24,24.68,32.24S258,287.11,258,273.1Zm-24.9,19.44c-7.36,0-11.88-11.33-11.88-19.45s4.52-19.44,11.88-19.44,12.11,11.52,12.11,19.44C245.19,285,238,292.54,233.08,292.54Z"></path><path d="M235.52,352c-49.15,0-77.17-32.91-77.17-80.72,0-46.26,30.24-84.73,78.5-84.73C281.55,186.59,306,232,306,272,306,312.24,278.66,352,235.52,352Zm-2.45-111.19c-16.23,0-24.68,18.24-24.68,32.25s8.45,32.24,24.68,32.24S258,287.11,258,273.1,249.31,240.85,233.07,240.85Z" style="fill:#fff"></path><path d="M471.69,339.59,435.89,342a5.94,5.94,0,0,1-6-5.79l-1.33-61.37-16.46,58a5.74,5.74,0,0,1-5.56,4.22h-22a5.49,5.49,0,0,1-5.34-4.22L362.5,274.65l-1.33,61.6c-.23,6.23-8.68,6.45-13.13,6.45-9.33,0-19.12-1.55-28.46-2.22a5.75,5.75,0,0,1-5.56-6l5.78-140.77a6.05,6.05,0,0,1,6-5.56l41.36.22a5.55,5.55,0,0,1,5.34,3.78l23.12,69.61,22.91-69.39a6,6,0,0,1,5.56-4l41.36-.22a5.83,5.83,0,0,1,5.78,5.56L477,333.81A5.51,5.51,0,0,1,471.69,339.59Z" style="fill:#fff"></path><path d="M514.83,352.27H495.48a5.89,5.89,0,0,1-5.78-5.79l-.22-157a5.89,5.89,0,0,1,5.78-5.78h18.9c35.58,0,102.74,1.56,102.74,51.37,0,13.79-7.34,24.91-18.23,32.91,10.89,8,18.46,18.91,18.46,32.92C617.13,350.49,550.41,352.27,514.83,352.27Zm29.35-129.43.23,28.46c8-.66,24-2.66,24-13.56C568.42,225.29,553.75,223.06,544.18,222.84Zm.45,61.82-.22,28.47c9.56-.45,24.24-2.67,24.24-15.13C568.65,287.11,552.63,285.33,544.63,284.66Z" style="fill:#fff"></path><path d="M353.15,99.65a36.93,36.93,0,0,1-4.47,27.48c-5.27,8.5-14.6,15-24.59,16.47a13,13,0,0,1,1,1.36c1.2,1.83.3,5.07-2.4,4.61-4.52-.76-7.49-5.79-8.72-9.86a18.24,18.24,0,0,1-.72-4c-5.14,5.92-7.94,14.65-8.63,21.75-.05.57-.1,1.16-.13,1.76a94,94,0,0,1,18.56,14.19,101.89,101.89,0,0,1,12.07,14,57.36,57.36,0,0,0,11.19-6.29c14.33-10.32,24.53-26.77,24.53-44.76A47.47,47.47,0,0,0,353.15,99.65Z" style="fill:#f7961d"></path><path d="M323.07,173.45c2.19,2.13,4.31,4.36,6.33,6.68,6.77-3.18,13.21-7.54,17.2-14,4.19-6.75,5.32-15.32,1.58-22.5a1.4,1.4,0,0,0-2.16-.46,55.74,55.74,0,0,1-15.32,11.58c-3.26,1.63-6.95,2.88-10.61,2.14-3.47-.71-6-3.17-8.49-5.49-.65-.59-2-.46-2,.63a41.17,41.17,0,0,0,1.12,11.13A100.74,100.74,0,0,1,323.07,173.45Z" style="fill:#fff"></path><circle cx="234.5" cy="264.38" r="93.74" style="fill:#888"></circle><path d="M353.15,99.65a37.68,37.68,0,0,1,.88,9.81c2.05,4.37,4.37,8.64,6.15,13.13,2.83,7.14,4.44,14.19,3.54,21.89a60.31,60.31,0,0,1-6.35,19.81c-1.55,3.1-3.27,6.11-5.06,9.08-1.21,2-2.69,4-3.86,6.16,13.2-10.38,22.41-26.07,22.41-43.16A47.47,47.47,0,0,0,353.15,99.65Z" style="fill:#ec2024"></path><path d="M189.16,310.3a93.76,93.76,0,0,1-8.74-122.5,93.74,93.74,0,1,0,129.1,132.79A93.75,93.75,0,0,1,189.16,310.3Z" style="fill:#666"></path><path d="M313.86,249.15a4.87,4.87,0,0,1-4.72-3.65,77.07,77.07,0,0,0-20.09-35,4.88,4.88,0,0,1,6.9-6.91A86.89,86.89,0,0,1,318.59,243a4.88,4.88,0,0,1-3.5,6A4.72,4.72,0,0,1,313.86,249.15Z" style="fill:#fff"></path><ellipse cx="198.52" cy="222.43" rx="31.22" ry="15.61" transform="translate(-67.66 356.73) rotate(-75.02)"></ellipse><ellipse cx="257" cy="231.69" rx="34.66" ry="17.33" transform="translate(-5.19 457.48) rotate(-82.77)"></ellipse><ellipse cx="258.41" cy="220.55" rx="18.17" ry="11.65" transform="matrix(0.13, -0.99, 0.99, 0.13, 7.08, 449.13)" style="fill:#fff"></ellipse><ellipse cx="201.24" cy="210.97" rx="15.06" ry="9.66" transform="translate(-51.97 355.51) rotate(-76.07)" style="fill:#fff"></ellipse><path d="M307.69,191.19a103.08,103.08,0,0,1,25.21,40.95,10.94,10.94,0,0,0,1-.9c9.16-9.15,1.74-31.41-16.57-49.71S276.79,155.8,267.64,165a10.94,10.94,0,0,0-.9,1A103.08,103.08,0,0,1,307.69,191.19Z" style="fill:#888"></path><path d="M318,164c1.82,2.24,4.6,3.73,6.61,5.86s3.5,4.78,5.31,7.19c1.48,2,4.13-.16,3.39-2.19-1.14-3.13-3.7-6-6.08-8.29-2.17-2.07-4.91-4.52-7.95-5A1.51,1.51,0,0,0,318,164Z"></path><path d="M322.4,160.14c2.59,2.07,5.37,3.66,7.69,6.09,2.1,2.19,3.46,5.12,5.68,7.11,1.19,1.07,3-.37,2.75-1.75-.54-3.21-3.65-6.41-5.94-8.56-2.47-2.33-5.42-4.7-8.75-5.61a1.56,1.56,0,0,0-1.43,2.72Z"></path><path d="M328.24,155.92l-.05-.12-1,.85c1.85,1.3,4,2.16,5.75,3.64,2.46,2,4.07,4.57,6.15,6.93a.94.94,0,0,0,1.55-1c-1.11-2.85-3.57-5.26-5.88-7.19-1.56-1.3-4.92-4.3-7.14-3.92a.91.91,0,0,0-.72,1,1.16,1.16,0,0,0,.24.5c.45.66,1.34,0,1.1-.71Z"></path><path d="M331.45,154.17c1.78,1.22,3.62,2.34,5.31,3.7a25.47,25.47,0,0,1,4.56,5c.23.31.73,0,.56-.36-2-3.93-6.39-6.72-10.08-8.85a.31.31,0,0,0-.35.51Z"></path><path d="M371.1,111.89A50.56,50.56,0,0,0,348,89c-2.57-1.25-5.28,2-4.05,4.43,4.91,9.45,4.94,21.3-.88,30.4-5.27,8.26-13.65,12.47-23,14.21,0-.08-.05-.15-.07-.23a11.82,11.82,0,0,1,.93-8.69c1.36-2.87-2.79-5.63-5-3.51-4.75,4.5-9,8.65-12,14.59a45.87,45.87,0,0,0-4.63,16.39q2.64,1.23,5.17,2.69c0-.6.08-1.19.13-1.76.69-7.1,3.49-15.83,8.63-21.75a18.24,18.24,0,0,0,.72,4c1.23,4.07,4.2,9.1,8.72,9.86,2.7.46,3.6-2.78,2.4-4.61a13,13,0,0,0-1-1.36c10-1.46,19.32-8,24.59-16.47a36.93,36.93,0,0,0,4.47-27.48,47.47,47.47,0,0,1,17.71,36.72c0,18-10.2,34.44-24.53,44.76a57.6,57.6,0,0,1-11.18,6.3q1.5,2.12,2.86,4.32a54.54,54.54,0,0,0,6.23-2.9,64,64,0,0,0,22.37-20.35C378,151.73,380.35,130.17,371.1,111.89Z"></path><path d="M230.06,321.43c6.41-8.67,16-12.07,26.46-12.05.44,0,.44-2.42-.06-2.54-10.86-2.69-22.06,4.77-26.44,14.38,0,0,0,.24,0,.21Z"></path><path d="M287,270.83a3.31,3.31,0,0,0-4.45-1.17l-11.87,6.17a164.59,164.59,0,0,0-17.75,4.74,2.83,2.83,0,0,0-3.79-2c-15.72,4.72-32.32,5.07-48.57,3.72a2.61,2.61,0,0,0-1.82.56,71.81,71.81,0,0,1-7.42-3.4c-2.67-1.42-6.42,1.61-4.45,4.45l1.68,2.43.06.16a11.54,11.54,0,0,0,3.9,5.32c.44.48.89.95,1.38,1.39a3.1,3.1,0,0,0,4,.36,71.38,71.38,0,0,0,17.43,3.35,2.75,2.75,0,0,0,.5,0,83.78,83.78,0,0,0,31.49-.46,3.12,3.12,0,0,0,3,.77l15.84-3.72c4.34-1,8.77-1.88,12.84-3.78C286.05,286.39,291,278.31,287,270.83Z" style="fill:#fff"></path><path d="M291.74,264.92a3.48,3.48,0,0,0-1.89-3.07,3,3,0,0,0-2.48-.41,2.67,2.67,0,0,0-1.83,1.21,51.38,51.38,0,0,1-11.37,7,98,98,0,0,1-13.7,4.41,156.62,156.62,0,0,1-29.58,4.78,152.53,152.53,0,0,1-30.13-1.07,69.67,69.67,0,0,1-12.94-2.84,60.08,60.08,0,0,1-5.92-2.33c-2.06-.94-3.86-2.29-6.08-2.75a1.68,1.68,0,0,0-1.66,2.38,12.65,12.65,0,0,0,4.88,4.48,1.69,1.69,0,0,0,.67.42c.51.65,1.06,1.86,1.38,2.36.69,1.08,1.37,2.16,2,3.26,1.11,1.87,2.11,3.8,3,5.77A84.92,84.92,0,0,1,191,301.64c1.18,4.24,2.09,8.55,2.89,12.88s.71,9.51,2.5,13.46a1.46,1.46,0,0,0,.35.89c2.67,3.22,8.12,4.61,12,5.72a72.14,72.14,0,0,0,14.19,2.64,76.49,76.49,0,0,0,29-3.18c8.87-2.78,17.52-7.16,24.25-13.67a48.41,48.41,0,0,0,13.11-23.8C291.79,286.23,292,275.52,291.74,264.92Zm-28.58,56.85a69.18,69.18,0,0,1-31.71,9.44,79.33,79.33,0,0,1-16.72-.91,80.47,80.47,0,0,1-8.94-1.95c-1.64-.45-3.31-1.14-5-1.55.25-2.52-.47-5.23-.86-7.7s-.83-5.12-1.34-7.66a124.34,124.34,0,0,0-4-15,73.78,73.78,0,0,0-6.45-14.33c-.3-.52-.69-1.23-1.13-2A76.86,76.86,0,0,0,199.19,283a149.79,149.79,0,0,0,32.09,1.48,152.6,152.6,0,0,0,32.52-5.32c7.2-2,14.95-4.36,21.21-8.72-.15,8.81-.54,17.71-2.94,26.2A42.07,42.07,0,0,1,263.16,321.77Z"></path><path d="M211.72,329.75l.21.05h0Z"></path><path d="M284.14,285.92c-6.88,2.6-13.58,5.34-20.76,7.18a136.26,136.26,0,0,1-48.29,3.32c-3.93-.44-7.86-1-11.75-1.71q-3.15-.57-6.27-1.31c-1.21-.28-2.41-.66-3.94-1,.53,1.34,1,2.7,1.49,4.08l.24.78c.78,2.37,1.49,4.77,2.11,7.19l.11.22a.25.25,0,0,1,0,.07c.58,2.22,1.09,4.46,1.55,6.7.51,2.54.94,5.1,1.34,7.66s1.11,5.18.86,7.7c1.69.41,3.36,1.1,5,1.55s3.14.8,4.72,1.14a11.71,11.71,0,0,1,1.31-5.35v0c.13-.31.25-.62.35-.94l.21-.08a20.06,20.06,0,0,1,6.41-6.57,20.28,20.28,0,0,1,4.94-2.21l.1,0h0a17,17,0,0,1,10.71.17l-.65.73h.5a2.67,2.67,0,0,0,.86.12l1-.05a28.75,28.75,0,0,1,6.27-3.43c8.59-2.1,18.5-.1,25,5.72a2.56,2.56,0,0,1,.51.65l.06,0a42.3,42.3,0,0,0,13.89-21.59c.43-1.5.78-3,1.09-4.53h0c.12-.6.24-1.2.34-1.8h0C283.74,288.84,284,287.38,284.14,285.92Z"></path><path d="M231.45,331.21a69.18,69.18,0,0,0,31.71-9.44,44.19,44.19,0,0,0,5-3.53,2.65,2.65,0,0,0-.54-.69c-6.54-5.82-16.45-7.82-25-5.72a28.22,28.22,0,0,0-12.51,9.6s-.05-.17,0-.21a26.18,26.18,0,0,1,4.54-6.77c-5-1.95-11.31-.73-15.76,2.07-4.2,2.65-8.39,7.78-8.29,13,1.4.3,2.81.57,4.22.79A79.33,79.33,0,0,0,231.45,331.21Z" style="fill:#ec2024"></path><path d="M335.83,243.14c1.66-1.66,3.33-3.32,5-5a22.61,22.61,0,0,0,4.62-6.77c4.06-9.15,1.94-19.78-1.75-28.68-4.59-11.08-12.05-20.94-20.62-29.25-8.21-8-17.83-14.88-28.58-19-9.09-3.45-20-5-28.88-.11-3.13,1.74-5.51,4.31-8,6.81l-1.48,1.48c-.09.09-.22.28-.34.34-.29.14-1.16-.18-1.51-.25-3.28-.63-6.59-1.1-9.91-1.42a104.78,104.78,0,0,0-35.63,2.75,102.62,102.62,0,0,0-31.18,13.83A105,105,0,0,0,151.86,202a102.74,102.74,0,0,0-15.39,29,104.57,104.57,0,0,0-.46,65.37,102.9,102.9,0,0,0,15,29.26,104.76,104.76,0,0,0,26.27,25,102.6,102.6,0,0,0,36.48,15.14,105,105,0,0,0,40,.26,102.66,102.66,0,0,0,36.68-14.64,105.14,105.14,0,0,0,27.2-25.5A102.77,102.77,0,0,0,338,262.14,106.53,106.53,0,0,0,335.83,243.14ZM267.64,165c5.46-5.46,14.32-4.31,21-2.16,8,2.59,15.37,7.2,21.86,12.51A90,90,0,0,1,329.15,196c4,6.2,7.39,13.19,8.42,20.56.72,5.14.14,10.82-3.67,14.67-.32.33-.64.65-1,1a102.88,102.88,0,0,0-18-33A104.68,104.68,0,0,0,286,174.55a102.36,102.36,0,0,0-19.35-8.6ZM199.23,351.25A93.76,93.76,0,1,1,295,192.77a94.66,94.66,0,0,1,19.13,22.11,93.3,93.3,0,0,1,11.12,26A94.89,94.89,0,0,1,328,271.57a93,93,0,0,1-7.71,30.74,95.55,95.55,0,0,1-17,25.79,93.77,93.77,0,0,1-104,23.15Z"></path></g></svg>